<svg width="30" height="30" viewBox="0 0 32 32" fill="none" xmlns="http://www.w3.org/2000/svg">
<circle cx="13" cy="13" r="10" fill="#3367D6"/>
<path d="M26 13C26 20.1797 20.1797 26 13 26C5.8203 26 0 20.1797 0 13C0 5.8203 5.8203 0 13 0C20.1797 0 26 5.8203 26 13ZM2.87408 13C2.87408 18.5924 7.40761 23.1259 13 23.1259C18.5924 23.1259 23.1259 18.5924 23.1259 13C23.1259 7.40761 18.5924 2.87408 13 2.87408C7.40761 2.87408 2.87408 7.40761 2.87408 13Z" fill="white"/>
<rect x="21.6753" y="18.6883" width="14.3639" height="4.25198" rx="2.12599" transform="rotate(45 21.6753 18.6883)" fill="white"/>
</svg>
