<svg width="66" height="66" viewBox="0 0 66 66" fill="none" xmlns="http://www.w3.org/2000/svg">
<path d="M49.5 60.5C50.9587 60.5 52.3576 59.9205 53.3891 58.8891C54.4205 57.8576 55 56.4587 55 55V11C55 9.54131 54.4205 8.14236 53.3891 7.11091C52.3576 6.07946 50.9587 5.5 49.5 5.5H33V24.75L26.125 20.625L19.25 24.75V5.5H16.5C15.0413 5.5 13.6424 6.07946 12.6109 7.11091C11.5795 8.14236 11 9.54131 11 11V55C11 56.4587 11.5795 57.8576 12.6109 58.8891C13.6424 59.9205 15.0413 60.5 16.5 60.5H49.5Z" fill="#000035"/>
</svg>
